<?xml version="1.0" encoding="UTF-8" standalone="no"?>
<!-- Created with Inkscape (http://www.inkscape.org/) -->

<svg
   xmlns:dc="http://purl.org/dc/elements/1.1/"
   xmlns:cc="http://creativecommons.org/ns#"
   xmlns:rdf="http://www.w3.org/1999/02/22-rdf-syntax-ns#"
   xmlns:svg="http://www.w3.org/2000/svg"
   xmlns="http://www.w3.org/2000/svg"
   xmlns:sodipodi="http://sodipodi.sourceforge.net/DTD/sodipodi-0.dtd"
   xmlns:inkscape="http://www.inkscape.org/namespaces/inkscape"
   width="633.26294"
   height="310.02594"
   viewBox="0 0 167.55082 82.027699"
   version="1.1"
   id="svg8"
   inkscape:version="0.92.3 (2405546, 2018-03-11)"
   sodipodi:docname="logo-text-vectorized.svg">
  <defs
     id="defs2" />
  <sodipodi:namedview
     id="base"
     pagecolor="#ffffff"
     bordercolor="#666666"
     borderopacity="1.0"
     inkscape:pageopacity="0.0"
     inkscape:pageshadow="2"
     inkscape:zoom="1"
     inkscape:cx="283.37943"
     inkscape:cy="261.78697"
     inkscape:document-units="px"
     inkscape:current-layer="layer1"
     showgrid="false"
     units="px"
     showborder="false"
     inkscape:window-width="1920"
     inkscape:window-height="1008"
     inkscape:window-x="0"
     inkscape:window-y="0"
     inkscape:window-maximized="1"
     fit-margin-top="0"
     fit-margin-left="0"
     fit-margin-right="0"
     fit-margin-bottom="0" />
  <metadata
     id="metadata5">
    <rdf:RDF>
      <cc:Work
         rdf:about="">
        <dc:format>image/svg+xml</dc:format>
        <dc:type
           rdf:resource="http://purl.org/dc/dcmitype/StillImage" />
        <dc:title></dc:title>
      </cc:Work>
    </rdf:RDF>
  </metadata>
  <g
     inkscape:label="Layer 1"
     inkscape:groupmode="layer"
     id="layer1"
     transform="translate(-11.252018,-95.297357)">
    <path
       style="fill:#000000;fill-opacity:1;stroke-width:0.28222221"
       d="m 17.115277,177.13326 c -0.666375,-0.48726 -0.551378,-1.71542 0.84535,-9.02827 0.53959,-2.82513 1.868932,-10.00195 2.954093,-15.94849 4.150963,-22.74672 6.710502,-33.44175 12.081634,-50.48305 l 0.817178,-2.592696 -5.398693,5.442176 c -5.814669,5.86151 -7.901932,7.52094 -8.592005,6.83087 -0.547271,-0.54727 -2.8633,-8.24758 -2.869483,-9.54043 -0.008,-1.66336 0.487897,-1.51093 0.851486,0.26177 0.453975,2.21336 2.226774,8.05635 2.541983,8.37814 0.698006,0.71259 3.606415,-1.88248 9.116678,-8.13449 5.584627,-6.336376 6.57061,-7.341446 6.814673,-6.946536 0.117656,0.19037 -0.128263,0.68005 -0.576459,1.14787 -0.429906,0.44872 -0.803143,1.16865 -0.829414,1.59984 -0.02627,0.43119 -0.884109,3.450976 -1.906308,6.710646 -4.806924,15.3287 -7.376915,26.45081 -11.216676,48.54222 -0.944283,5.43278 -2.165524,12.28221 -2.713868,15.22095 -0.700236,3.75279 -0.944768,5.72685 -0.821546,6.63222 0.223748,1.64397 -0.274874,2.5096 -1.098623,1.90726 z m 25.513487,-0.72681 c -2.233859,-0.72365 -4.129514,-2.51021 -5.239056,-4.93753 -1.419602,-3.10563 -1.565093,-7.87908 -0.37816,-12.40713 0.636061,-2.42651 2.784941,-7.26331 4.28287,-9.64007 2.657463,-4.21659 6.609082,-8.70947 10.030609,-11.40451 l 2.239476,-1.76397 0.145195,-6.11576 c 0.155857,-6.56506 0.463279,-8.3821 1.279976,-7.56541 0.358769,0.35877 0.370304,0.50974 0.0669,0.87533 -0.256368,0.3089 -0.435409,2.19949 -0.595254,6.28559 -0.125736,3.2141 -0.202201,5.87022 -0.169924,5.90249 0.03228,0.0323 0.946052,-0.50107 2.030609,-1.18523 1.084557,-0.68416 2.336298,-1.39538 2.781641,-1.5805 0.772894,-0.32126 0.802271,-0.39946 0.645945,-1.71939 -0.184153,-1.55487 0.290345,-1.76777 0.752557,-0.33767 0.356362,1.1026 0.291363,1.07716 1.363887,0.53372 l 0.943449,-0.47805 -1.118069,0.98006 c -1.109446,0.97249 -1.114343,0.98573 -0.635,1.7173 1.08427,1.6548 2.409024,1.69491 3.687092,0.11162 0.716275,-0.88733 0.882459,-1.37782 0.978646,-2.8884 0.112615,-1.76859 0.08806,-1.84738 -0.876292,-2.81173 -0.859911,-0.85991 -1.174598,-0.99273 -2.360933,-0.99648 -1.36501,-0.004 -2.36713,-0.3614 -2.011694,-0.71684 0.103073,-0.10307 1.242396,-0.21056 2.531827,-0.23887 2.20494,-0.0484 2.545912,-0.14536 5.731089,-1.62958 10.432291,-4.86123 10.984459,-5.06285 12.691708,-4.63436 1.095449,0.27494 1.8408,1.71529 1.839686,3.55509 -5.65e-4,0.85372 -0.31721,5.10822 -0.703758,9.45444 -0.386551,4.34622 -0.703151,8.56148 -0.70356,9.36723 -8.47e-4,1.58129 -0.289495,2.02946 -0.862534,1.33899 -0.405485,-0.48858 -0.129918,-4.88632 0.874229,-13.95178 0.81928,-7.39645 0.697165,-8.84226 -0.778084,-9.21252 -0.928014,-0.23292 -4.141368,0.9886 -8.743535,3.32376 -2.107153,1.06918 -4.544353,2.14173 -5.416002,2.38346 -2.564469,0.71118 -2.459107,0.61717 -1.644599,1.46753 0.887337,0.92641 1.614271,2.5794 1.605807,3.65149 -0.0089,1.13358 -0.927167,2.9893 -1.830851,3.70013 -1.107754,0.87137 -2.921252,0.83457 -3.907296,-0.0793 -0.410721,-0.38064 -0.746766,-0.82514 -0.746766,-0.98778 0,-0.54797 -0.57369,-0.3025 -3.365554,1.44002 l -2.780955,1.73572 -0.181794,3.27372 c -0.625627,11.26634 -1.035693,15.47965 -2.158943,22.18262 -0.941319,5.61731 -1.906933,9.25841 -2.890091,10.89785 -1.438972,2.39953 -4.299946,3.78643 -6.404489,3.10466 z m 3.027181,-1.15311 c 2.47403,-1.50849 4.187974,-5.93964 5.702875,-14.74397 1.05208,-6.1145 2.591511,-22.29865 2.161907,-22.72825 -0.08324,-0.0832 -0.875541,0.40635 -1.760677,1.08797 -4.457897,3.43288 -11.441847,13.96283 -13.328503,20.09585 -1.226032,3.98551 -1.454689,9.84511 -0.475622,12.18835 0.672911,1.6105 1.863498,2.95755 3.385745,3.83068 1.681675,0.96457 3.035458,1.0491 4.314275,0.26937 z m 64.889325,-33.60069 c -1.22786,-0.36796 -1.87468,-1.09702 -1.87468,-2.11306 0,-1.53351 2.25376,-4.36473 5.36223,-6.73613 2.98321,-2.27584 3.22609,-2.23339 0.7305,0.12767 -3.29483,3.11723 -5.24606,5.47487 -5.24606,6.33874 0,1.56647 2.73826,2.04728 8.89,1.561 8.35633,-0.66056 13.78898,-1.89177 15.51022,-3.5151 2.27295,-2.14367 0.64893,-4.16076 -6.9793,-8.66852 -4.39441,-2.59679 -6.17812,-3.9458 -7.37558,-5.57811 -2.27027,-3.09471 -2.50516,-7.24736 -0.63291,-11.18977 2.77818,-5.85007 7.23861,-10.56952 12.16476,-12.871166 3.41664,-1.59637 7.67579,-1.4463 8.61222,0.30344 0.75563,1.411906 0.13138,3.133926 -1.98666,5.480316 -1.37677,1.52519 -1.5228,1.61483 -1.86598,1.1455 -0.20478,-0.28005 -0.37233,-0.58945 -0.37233,-0.68756 0,-0.0981 0.66446,-0.71889 1.47658,-1.37951 2.48538,-2.02177 3.05614,-3.41484 1.85687,-4.532116 -1.34487,-1.25295 -5.87669,-0.26493 -9.71011,2.116966 -4.82387,2.99732 -9.87163,9.72278 -10.85591,14.46402 -0.26645,1.28349 -0.24416,1.88417 0.12551,3.38218 0.84452,3.42222 2.95742,5.5269 9.10424,9.06878 5.96134,3.43501 8.56727,5.7849 8.56727,7.72552 0,1.21971 -1.49109,2.50419 -3.77873,3.25517 -2.36121,0.77514 -8.00537,1.92102 -11.32016,2.29824 -3.01588,0.34321 -9.26139,0.34531 -10.40199,0.004 z m 49.63088,-1.82731 c -3.08408,-1.09111 -3.64667,-4.22384 -2.11527,-11.77879 0.46373,-2.28778 0.87538,-4.31978 0.91477,-4.51555 0.0394,-0.19577 -0.12498,-0.34258 -0.36524,-0.32625 -0.24027,0.0163 -1.60552,0.12111 -3.03389,0.23285 -2.17399,0.17007 -2.59704,0.1365 -2.59704,-0.20608 0,-0.51801 1.19593,-0.7608 3.77472,-0.76635 1.10596,-0.002 2.15474,-0.0976 2.33063,-0.21166 0.17588,-0.11404 0.8068,-1.9536 1.40205,-4.0879 0.59525,-2.13431 1.19518,-3.88056 1.33318,-3.88056 0.13801,0 0.15757,0.22225 0.0435,0.49389 -0.24777,0.58987 -2.08842,6.89308 -2.10156,7.19667 -0.005,0.11641 2.03343,0.21166 4.52992,0.21166 3.50567,0 4.51237,0.0803 4.42178,0.35278 -0.0859,0.25836 -1.33401,0.37351 -4.66336,0.43024 -4.01673,0.0684 -4.56392,0.13418 -4.69938,0.56445 -0.5426,1.72346 -1.32615,6.26362 -1.47604,8.55272 -0.29969,4.57664 0.64124,6.74103 3.18697,7.33091 3.14581,0.72892 9.94999,-2.1931 16.61206,-7.13398 l 1.12889,-0.83723 -1.12889,1.01863 c -3.42178,3.0876 -9.05422,6.22464 -12.95681,7.2164 -2.61006,0.66329 -3.03305,0.67663 -4.54096,0.14315 z m -17.90105,-0.91683 c -1.41804,-0.72308 -2.06812,-1.77827 -2.21939,-3.60246 -0.1042,-1.25654 -0.21764,-1.54696 -0.55385,-1.41795 -0.43791,0.16804 -1.19793,-0.29428 -1.19793,-0.72871 0,-0.13622 0.42756,-0.24767 0.95014,-0.24767 0.86622,0 0.99998,-0.11843 1.51412,-1.34055 1.63252,-3.88049 5.65974,-7.18606 6.40111,-5.25407 0.45614,1.18867 -1.65361,4.10255 -4.14923,5.7307 -2.46654,1.60918 -2.45837,1.59936 -2.45837,2.95366 0,2.35365 1.70331,3.55471 5.04121,3.55471 2.22721,0 4.76055,-0.7039 7.09435,-1.97119 1.34332,-0.72944 1.44158,-0.7516 0.7301,-0.16466 -2.88127,2.37689 -8.78664,3.69445 -11.15226,2.48819 z m 0.67646,-7.46056 c 1.20611,-0.79889 3.81903,-3.86219 3.81903,-4.47729 0,-1.6055 -4.2445,1.72573 -5.24263,4.1146 -0.66763,1.59786 -0.50407,1.63953 1.4236,0.36269 z m -131.568104,6.59863 c -0.263928,-0.1675 -0.147075,-1.36304 0.50297,-5.14597 1.900445,-11.05963 2.819078,-18.60657 3.363865,-27.6355 0.244756,-4.05643 0.352295,-4.71749 0.848077,-5.21327 0.312278,-0.312276 0.567778,-0.422236 0.567778,-0.244366 0,0.17787 -0.384241,4.301846 -0.853869,9.164376 -1.495185,15.48115 -3.260012,29.03459 -3.802797,29.20455 -0.155222,0.0486 -0.436933,-0.01 -0.626024,-0.12982 z m 21.067008,-2.63247 c -0.44651,-0.83431 -0.153284,-2.32875 0.987799,-5.03436 2.723156,-6.45685 6.326857,-10.05992 9.071254,-9.06966 0.476687,0.17201 1.079937,0.31274 1.340555,0.31274 0.688377,0 0.608917,1.23663 -0.255222,3.97212 -0.93645,2.96439 -0.932504,4.40022 0.01741,6.34181 1.176996,2.40569 3.500156,3.59917 4.983525,2.56018 1.062913,-0.7445 1.399108,-0.52022 0.574138,0.383 -0.786866,0.86151 -1.16591,0.90464 -3.624819,0.41247 -1.503596,-0.30096 -3.216862,-2.53096 -3.62793,-4.72215 -0.107846,-0.57486 -0.277199,-1.04498 -0.376341,-1.0447 -0.09914,2.8e-4 -0.537481,0.56594 -0.974084,1.25704 -1.050327,1.66254 -3.616405,4.20564 -4.819897,4.77674 -1.405561,0.66698 -2.896886,0.60128 -3.296404,-0.14523 z m 3.014632,-0.696 c 3.157114,-2.10992 6.233201,-6.62084 7.295161,-10.69797 0.509519,-1.95618 0.232664,-2.50153 -1.248537,-2.45942 -1.963902,0.0558 -3.515219,1.71655 -5.726118,6.12989 -1.896055,3.78486 -2.912155,6.80302 -2.469773,7.33606 0.491563,0.5923 0.88604,0.53566 2.149267,-0.30856 z"
       id="path826"
       inkscape:connector-curvature="0" />
  </g>
</svg>
