<?xml version="1.0" encoding="UTF-8" standalone="no"?>
<!-- Created with Inkscape (http://www.inkscape.org/) -->

<svg
   xmlns:dc="http://purl.org/dc/elements/1.1/"
   xmlns:cc="http://creativecommons.org/ns#"
   xmlns:rdf="http://www.w3.org/1999/02/22-rdf-syntax-ns#"
   xmlns:svg="http://www.w3.org/2000/svg"
   xmlns="http://www.w3.org/2000/svg"
   xmlns:sodipodi="http://sodipodi.sourceforge.net/DTD/sodipodi-0.dtd"
   xmlns:inkscape="http://www.inkscape.org/namespaces/inkscape"
   width="350.42035"
   height="171.55489"
   viewBox="0 0 92.715384 45.390565"
   version="1.1"
   id="svg8"
   inkscape:version="0.92.3 (2405546, 2018-03-11)"
   sodipodi:docname="logo-text-simplified.svg">
  <defs
     id="defs2" />
  <sodipodi:namedview
     id="base"
     pagecolor="#ffffff"
     bordercolor="#666666"
     borderopacity="1.0"
     inkscape:pageopacity="0.0"
     inkscape:pageshadow="2"
     inkscape:zoom="1"
     inkscape:cx="62.853661"
     inkscape:cy="95.167963"
     inkscape:document-units="px"
     inkscape:current-layer="layer1"
     showgrid="false"
     units="px"
     showborder="false"
     inkscape:window-width="1920"
     inkscape:window-height="1008"
     inkscape:window-x="0"
     inkscape:window-y="0"
     inkscape:window-maximized="1"
     fit-margin-top="0"
     fit-margin-left="0"
     fit-margin-right="0"
     fit-margin-bottom="0"
     inkscape:snap-global="false" />
  <metadata
     id="metadata5">
    <rdf:RDF>
      <cc:Work
         rdf:about="">
        <dc:format>image/svg+xml</dc:format>
        <dc:type
           rdf:resource="http://purl.org/dc/dcmitype/StillImage" />
        <dc:title></dc:title>
      </cc:Work>
    </rdf:RDF>
  </metadata>
  <g
     inkscape:label="Layer 1"
     inkscape:groupmode="layer"
     id="layer1"
     transform="translate(-33.141391,-144.85974)">
    <g
       id="g899" />
    <path
       id="path874"
       style="fill:#000000;fill-opacity:1;stroke-width:0.15616952"
       d="m 46.539859,166.67347 c 1.74701,-1.16754 3.449183,-3.66369 4.036825,-5.91979 0.281946,-1.08247 0.128747,-1.38424 -0.690886,-1.36094 -1.086738,0.0309 -1.945169,0.94986 -3.168585,3.39201 -1.049194,2.09438 -1.61146,3.7645 -1.366665,4.05946 0.27201,0.32775 0.490296,0.29641 1.189311,-0.17074 z m -1.668167,0.38513 c -0.247079,-0.46167 -0.08482,-1.28863 0.546606,-2.78579 1.506876,-3.57294 3.501008,-5.56673 5.019638,-5.01876 0.263778,0.0952 0.59759,0.17306 0.741805,0.17306 0.380918,0 0.336948,0.6843 -0.141229,2.198 -0.518191,1.64036 -0.516007,2.43489 0.0096,3.50928 0.651298,1.3312 1.936834,1.99162 2.757666,1.41669 0.58817,-0.41197 0.774206,-0.28787 0.317703,0.21194 -0.435417,0.47672 -0.645164,0.50059 -2.005817,0.22824 -0.832025,-0.16654 -1.780072,-1.40052 -2.007539,-2.61303 -0.05968,-0.31811 -0.15339,-0.57825 -0.208251,-0.57809 -0.05486,1.5e-4 -0.297419,0.31316 -0.539016,0.69559 -0.581205,0.91997 -2.001161,2.32722 -2.667121,2.64324 -0.777777,0.36908 -1.603011,0.33272 -1.824087,-0.0804 z m -11.657567,1.4567 c -0.146047,-0.0927 -0.08139,-0.75425 0.278321,-2.84756 1.051624,-6.11992 1.559956,-10.29607 1.861417,-15.29228 0.135438,-2.24466 0.194945,-2.61046 0.469289,-2.8848 0.172801,-0.1728 0.314184,-0.23365 0.314184,-0.13522 0,0.0984 -0.212622,2.38045 -0.472494,5.07116 -0.827371,8.5666 -1.803949,16.06649 -2.104303,16.16054 -0.08589,0.0269 -0.24178,-0.006 -0.346414,-0.0718 z m 72.804075,-3.6514 c 0.66741,-0.44207 2.11329,-2.13717 2.11329,-2.47753 0,-0.88842 -2.34872,0.95494 -2.90105,2.27684 -0.36943,0.88418 -0.27893,0.90724 0.78776,0.20069 z m 9.53134,4.63569 c -1.70659,-0.60378 -2.22496,-2.28553 -1.37755,-6.46611 0.0554,-0.53641 0.48648,-2.19276 0.51114,-2.73101 -0.13295,0.009 -0.88842,0.067 -1.67882,0.12885 -1.20299,0.0941 -1.43709,0.0755 -1.43709,-0.11403 0,-0.28665 0.66177,-0.421 2.08877,-0.42407 0.61199,-0.001 1.02762,-0.0906 1.12495,-0.15373 0.0973,-0.0631 0.34293,-1.03842 0.67231,-2.21945 0.32939,-1.18103 0.9296,-2.15334 1.00596,-2.15334 0.0764,0 0.0872,0.12298 0.0241,0.2733 -0.1371,0.3264 -1.15564,3.81433 -1.16291,3.98232 -0.003,0.0644 1.12521,0.11712 2.50666,0.11712 1.93989,0 2.49695,0.0444 2.44682,0.19522 -0.0475,0.14296 -0.73818,0.20668 -2.5805,0.23807 -2.22268,0.0378 -2.52547,0.0743 -2.60043,0.31235 -0.30025,0.95368 -0.73383,3.46601 -0.81678,4.7327 -0.16583,2.53251 0.87247,3.57491 2.28117,3.90132 1.74075,0.40335 4.98826,-1.05828 8.67476,-3.79235 l 0.62468,-0.46328 -0.62468,0.56366 c -1.89347,1.70855 -4.7514,3.85855 -6.91092,4.40735 -1.4443,0.36703 -1.93718,-0.0397 -2.77159,-0.33489 z m -27.463571,1.01115 c -0.679445,-0.20361 -1.037367,-0.60704 -1.037367,-1.16927 0,-0.84858 1.247133,-2.41526 2.967226,-3.72749 1.650778,-1.25935 1.785178,-1.23586 0.404227,0.0707 -1.823216,1.72494 -2.644126,2.97779 -2.644126,3.45582 0,0.86682 1.308179,0.87406 4.712285,0.60497 4.62403,-0.36552 7.578466,-0.73624 8.530926,-1.63452 1.25775,-1.18621 0.35909,-2.30238 -3.862046,-4.79678 -2.431676,-1.43695 -3.418704,-2.18344 -4.081326,-3.08669 -1.256269,-1.71247 -1.386247,-4.01037 -0.350225,-6.19193 1.537324,-3.23717 4.005532,-5.84871 6.73145,-7.12234 1.890617,-0.88336 4.247447,-0.80032 4.765627,0.16791 0.41813,0.78128 0.0727,1.73417 -1.09933,3.03257 -0.76184,0.84397 -0.84265,0.89357 -1.03255,0.63387 -0.11332,-0.15497 -0.20603,-0.32618 -0.20603,-0.38047 0,-0.0543 0.36768,-0.3978 0.81707,-0.76336 1.3753,-1.11876 1.69114,-1.88963 1.02751,-2.50787 -0.74419,-0.69333 -3.2519,-0.14661 -5.37315,1.17143 -2.66932,1.65859 -5.255477,5.35428 -5.800135,7.97788 -0.147441,0.71023 -0.08335,1.0685 0.121213,1.89743 0.467321,1.89371 1.636508,2.74777 5.037892,4.70769 3.29875,1.90078 4.48194,3.51169 4.48194,4.58555 0,0.67493 -0.82511,1.38571 -2.09099,1.80127 -1.306587,0.42893 -4.429821,1.06301 -6.264081,1.27174 -1.668858,0.18992 -5.124852,0.19108 -5.75601,0.002 z m 17.557911,-1.51849 c -0.78468,-0.40012 -1.14441,-0.98401 -1.22811,-1.99344 -0.0577,-0.69532 -0.12044,-0.85602 -0.30648,-0.78463 -0.24232,0.093 -0.66288,-0.16285 -0.66288,-0.40324 0,-0.0754 0.23659,-0.13705 0.52576,-0.13705 0.47933,0 0.55335,-0.0655 0.83785,-0.7418 0.90337,-2.1473 3.13186,-3.97646 3.5421,-2.90738 0.25241,0.65776 -0.91504,2.27018 -2.29601,3.17112 -1.36487,0.89045 -1.10154,1.09208 -1.10154,1.84149 0,1.3024 0.5802,1.55291 2.42725,1.55291 1.23244,0 2.73781,-0.18245 4.02923,-0.88372 0.74334,-0.40364 0.79771,-0.4159 0.40401,-0.0911 -1.59437,1.31526 -4.86215,2.04435 -6.17118,1.37685 z M 52.179033,189.1039 c 1.36902,-0.83473 2.317443,-3.28673 3.155723,-8.15867 0.582175,-3.3835 1.43403,-12.3391 1.196306,-12.57683 -0.04606,-0.046 -0.484487,0.22486 -0.974283,0.60204 -2.466806,1.89961 -6.331421,7.72642 -7.375415,11.12017 -0.678433,2.20541 -0.804962,5.44786 -0.263188,6.7445 0.372359,0.89119 1.031179,1.63658 1.873524,2.11974 0.930566,0.53375 1.679691,0.58052 2.387333,0.14905 z m -1.675111,0.63809 c -1.236121,-0.40044 -2.285094,-1.38905 -2.899066,-2.73222 -0.785546,-1.71852 -0.866055,-4.35994 -0.209258,-6.86557 0.351969,-1.34272 1.541066,-4.0192 2.369955,-5.33439 1.470524,-2.33328 3.657179,-4.81945 5.550503,-6.31076 l 1.239229,-0.97611 0.08035,-3.38419 c 0.08624,-3.63282 0.256358,-4.63829 0.708283,-4.18637 0.198527,0.19852 0.20491,0.28206 0.03702,0.48437 -0.141863,0.17093 -0.240937,1.2171 -0.329388,3.47817 -0.06958,1.77854 -0.111889,3.24832 -0.09403,3.26618 0.01786,0.0179 0.523504,-0.27727 1.123651,-0.65585 0.600147,-0.37859 1.292806,-0.77215 1.53924,-0.87458 0.427686,-0.17778 0.443942,-0.22105 0.357438,-0.95144 -0.101903,-0.8604 0.160664,-0.97821 0.416432,-0.18685 0.197195,0.61013 0.161228,0.59605 0.754716,0.29534 l 0.522064,-0.26454 -0.618691,0.54233 c -0.61392,0.53813 -0.616629,0.54546 -0.351382,0.95028 0.599988,0.91569 1.33305,0.93788 2.040277,0.0618 0.396355,-0.49101 0.488314,-0.76243 0.54154,-1.59831 0.06232,-0.97867 0.04873,-1.02226 -0.484902,-1.55589 -0.475837,-0.47584 -0.649971,-0.54934 -1.306438,-0.55141 -0.755337,-0.002 -1.309867,-0.19999 -1.113184,-0.39667 0.05704,-0.057 0.687488,-0.11652 1.401003,-0.13218 1.220118,-0.0268 1.408798,-0.0804 3.171336,-0.90174 5.772777,-2.68999 6.078323,-2.80156 7.023041,-2.56445 0.606174,0.15214 1.018618,0.94916 1.018002,1.96723 -3.13e-4,0.47241 -0.17553,2.82667 -0.389429,5.23168 -0.213901,2.40501 -0.389093,4.73755 -0.38932,5.18341 -4.68e-4,0.87502 -0.160194,1.12302 -0.477289,0.74094 -0.224377,-0.27036 -0.07189,-2.70387 0.483761,-7.72031 0.453354,-4.09287 0.385781,-4.89292 -0.430558,-5.09781 -0.513523,-0.12888 -2.291653,0.54705 -4.838293,1.83923 -1.166007,0.59164 -2.514648,1.18514 -2.99698,1.3189 -1.419066,0.39354 -1.360763,0.34152 -0.91005,0.81207 0.491014,0.51264 0.893267,1.42733 0.888584,2.02058 -0.0049,0.62727 -0.513054,1.65415 -1.013114,2.04749 -0.612983,0.48218 -1.616494,0.46181 -2.162128,-0.0439 -0.227275,-0.21063 -0.413228,-0.4566 -0.413228,-0.5466 0,-0.30322 -0.317455,-0.16739 -1.862351,0.79685 l -1.53886,0.96047 -0.100597,1.81153 c -0.346195,6.23431 -0.573107,8.56577 -1.194665,12.2749 -0.520885,3.10838 -1.055214,5.1232 -1.599251,6.0304 -0.796265,1.3278 -2.379404,2.09525 -3.543966,1.71798 z m -14.118056,0.40218 c -0.368743,-0.26963 -0.305109,-0.94924 0.46778,-4.99585 0.298585,-1.56331 1.034185,-5.53465 1.634666,-8.8252 2.296963,-12.58705 3.713301,-18.50522 6.685452,-27.93513 l 0.452191,-1.43469 -2.987402,3.01147 c -3.217586,3.2435 -4.372586,4.16176 -4.754443,3.7799 -0.302836,-0.30283 -1.584426,-4.56385 -1.587847,-5.27926 -0.0044,-0.92043 0.269981,-0.83608 0.471175,0.14485 0.25121,1.22478 1.2322,4.45804 1.406623,4.6361 0.386246,0.39432 1.995634,-1.04168 5.044774,-4.50127 3.09029,-3.50627 3.635891,-4.06243 3.770944,-3.84391 0.06511,0.10534 -0.07097,0.37631 -0.318987,0.63518 -0.237891,0.24831 -0.444424,0.64668 -0.458962,0.88529 -0.01454,0.2386 -0.489227,1.90961 -1.054868,3.71337 -2.659943,8.48224 -4.082064,14.63673 -6.206821,26.86116 -0.522526,3.00626 -1.198307,6.79644 -1.501737,8.42261 -0.38748,2.07663 -0.522794,3.16899 -0.454608,3.66999 0.123812,0.9097 -0.152103,1.3887 -0.60793,1.05539 z"
       inkscape:connector-curvature="0" />
  </g>
</svg>
